<?xml version="1.0" encoding="utf-8"?>
<!-- Generator: Adobe Illustrator 19.0.1, SVG Export Plug-In . SVG Version: 6.00 Build 0)  -->
<svg version="1.1" id="Layer_1" xmlns="http://www.w3.org/2000/svg" xmlns:xlink="http://www.w3.org/1999/xlink" x="0px" y="0px"
	 viewBox="0 0 600 361.9" style="enable-background:new 0 0 600 361.9;" xml:space="preserve">
<style type="text/css">
	.st0{fill:#00247D;}
	.st1{fill:#FFFFFF;}
	.st2{fill:#CF142B;}
</style>
<g>
	<polygon class="st0" points="0,239.6 0,321.1 136.3,239.6 	"/>
	<polygon class="st0" points="249.4,0 68,0 249.4,109.5 	"/>
	<polygon class="st0" points="0,37.3 0,122.1 140.4,122.1 	"/>
	<polygon class="st0" points="600,321 600,239.6 465,239.6 	"/>
	<polygon class="st0" points="65.4,361.9 249.4,361.9 249.4,251.8 	"/>
	<polygon class="st0" points="600,122.1 600,42.1 466.2,122.1 	"/>
	<polygon class="st0" points="536.8,0 351.5,0 351.5,110.8 	"/>
	<polygon class="st0" points="351.5,249.5 351.5,361.9 537.8,361.9 	"/>
	<polygon class="st1" points="537.8,361.9 600,361.9 600,360.4 396,239.6 437.6,239.6 600,335.8 600,321 465,239.6 600,239.6 
		600,209.7 329.4,209.7 329.4,361.9 351.5,361.9 351.5,249.5 	"/>
	<polygon class="st2" points="207.2,122.1 1.1,0 0,0 0,24 165.6,122.1 	"/>
	<polygon class="st2" points="400.9,122.1 600,0.7 600,0 560.5,0 360.2,122.1 	"/>
	<polygon class="st2" points="202.7,239.6 2.1,361.9 42.8,361.9 243.4,239.6 	"/>
	<polygon class="st2" points="396,239.6 600,360.4 600,335.8 437.6,239.6 	"/>
	<polygon class="st1" points="329.4,150 600,150 600,122.1 466.2,122.1 600,42.1 600,0.7 400.9,122.1 360.2,122.1 560.5,0 536.8,0 
		351.5,110.8 351.5,0 329.4,0 	"/>
	<polygon class="st1" points="271.6,209.7 0,209.7 0,239.6 136.3,239.6 0,321.1 0,361.9 2.1,361.9 202.7,239.6 243.4,239.6 
		42.8,361.9 65.4,361.9 249.4,251.8 249.4,361.9 271.6,361.9 	"/>
	<polygon class="st1" points="271.6,150 271.6,0 249.4,0 249.4,109.5 68,0 1.1,0 207.2,122.1 165.6,122.1 0,24 0,37.3 140.4,122.1 
		0,122.1 0,150 	"/>
	<polygon class="st2" points="329.4,209.7 600,209.7 600,150 329.4,150 329.4,0 271.6,0 271.6,150 0,150 0,209.7 271.6,209.7 
		271.6,361.9 329.4,361.9 	"/>
</g>
</svg>
